PathFileType	4	(X/Y/Z)	C:\Users\u0145647\OneDrive - KU Leuven\KU Leuven\c3d2osim\CP4\T0\Data\Processed\ViconC3D_CP4_2\CP4_T0_13_gapFilled.trc
DataRate	CameraRate	NumFrames	NumMarkers	Units	OrigDataRate	OrigDataStartFrame	OrigNumFrames
100.000000	100.000000	6	47	mm	100.000000	72	573
Frame#	Time	C7			T10			CLAV			STRN			LSHO			RSHO			RBAK			LASI			RASI			LPSI			RPSI			LLAT			RLAT			LF1			LF2			LF3			LTHI			LKNE			LMEK			RF1			RF2			RF3			RTHI			RKNE			RMEK			LT1			LT2			LT3			LTIB			LANK			LMM			RT1			RT2			RT3			RTIB			RANK			RMM			LHEE			LSTL			LLCA			LTOE			LCM5			RHEE			RSTL			RLCA			RTOE			RCM5
		X1	Y1	Z1	X2	Y2	Z2	X3	Y3	Z3	X4	Y4	Z4	X5	Y5	Z5	X6	Y6	Z6	X7	Y7	Z7	X8	Y8	Z8	X9	Y9	Z9	X10	Y10	Z10	X11	Y11	Z11	X12	Y12	Z12	X13	Y13	Z13	X14	Y14	Z14	X15	Y15	Z15	X16	Y16	Z16	X17	Y17	Z17	X18	Y18	Z18	X19	Y19	Z19	X20	Y20	Z20	X21	Y21	Z21	X22	Y22	Z22	X23	Y23	Z23	X24	Y24	Z24	X25	Y25	Z25	X26	Y26	Z26	X27	Y27	Z27	X28	Y28	Z28	X29	Y29	Z29	X30	Y30	Z30	X31	Y31	Z31	X32	Y32	Z32	X33	Y33	Z33	X34	Y34	Z34	X35	Y35	Z35	X36	Y36	Z36	X37	Y37	Z37	X38	Y38	Z38	X39	Y39	Z39	X40	Y40	Z40	X41	Y41	Z41	X42	Y42	Z42	X43	Y43	Z43	X44	Y44	Z44	X45	Y45	Z45	X46	Y46	Z46	X47	Y47	Z47

72	0.71	-2712.5	1394.5	-253.25	-2751.8	1143.8	-291.18	NaN	NaN	NaN	NaN	NaN	NaN	-2632.8	1378.3	-464.61	-2684.7	1328.8	-64.995	-2761.7	1295.4	-144.31	NaN	NaN	NaN	NaN	NaN	NaN	-2786.4	933.2	-318.83	-2791.4	948.85	-245.53	NaN	NaN	NaN	-2684.1	964.67	-128.39	-2681	647.92	-428.29	-2666.3	604.01	-430.34	-2699.2	600.34	-436.79	NaN	NaN	NaN	-2688.4	397.44	-420.66	NaN	NaN	NaN	NaN	NaN	NaN	-2671.4	651.27	-132.16	NaN	NaN	NaN	-2679.4	550.96	-111.93	NaN	NaN	NaN	NaN	NaN	NaN	-2848.6	314.57	-434.86	NaN	NaN	NaN	-2817.8	347.71	-435.79	-2865	223.06	-442.96	NaN	NaN	NaN	NaN	NaN	NaN	-2690.2	296.07	-190.47	-2663.5	336.17	-208.88	-2707.9	345.47	-182.32	-2676.3	219.86	-158.82	-2743.5	54.09	-217.93	-2750.9	74.603	-299.87	NaN	NaN	NaN	NaN	NaN	NaN	NaN	NaN	NaN	-2982.8	71.027	-328.23	-2999.6	57.858	-368.1	-2802.9	54.458	-244.99	-2755	39.617	-299.49	-2741.4	28.865	-222.15	-2627.1	33.936	-281.12	-2639.2	19.424	-223.08
73	0.72	-2699.4	1396.8	-252.54	-2738.4	1146.1	-290.33	NaN	NaN	NaN	NaN	NaN	NaN	-2621.7	1380.9	-464.46	-2670.4	1331.3	-64.642	-2747.7	1297.9	-143.28	NaN	NaN	NaN	NaN	NaN	NaN	-2772.9	935.92	-318.59	-2778.1	951.2	-245.19	NaN	NaN	NaN	-2671.2	966.99	-127.82	-2661.1	652.16	-428.72	-2644.3	608.71	-430.72	-2677	603.59	-436.96	NaN	NaN	NaN	-2658.5	401.17	-420.49	NaN	NaN	NaN	NaN	NaN	NaN	-2663.6	651.21	-131.43	NaN	NaN	NaN	-2674.6	551.13	-111.15	-2648.9	442.43	-204.64	NaN	NaN	NaN	-2816.8	315.31	-435.44	NaN	NaN	NaN	-2786.6	348.56	-436.47	-2830.6	225.44	-444.59	-3009.3	174.33	-394.46	NaN	NaN	NaN	-2688	296.07	-189.39	-2661.1	336.01	-207.83	-2705.2	345.52	-180.89	-2674.3	219.5	-158.06	-2742.9	54.512	-217.29	-2751.4	76.572	-300.16	NaN	NaN	NaN	NaN	NaN	NaN	NaN	NaN	NaN	-2944.9	69.193	-335.54	-2962.1	57.644	-375.76	-2802.6	55.223	-243.81	-2755.6	41.198	-299.63	-2741	29.224	-221.7	-2627.1	33.867	-280.93	-2639	19.262	-222.82
74	0.73	-2686.2	1398.9	-251.97	-2725.3	1148.3	-289.31	NaN	NaN	NaN	NaN	NaN	NaN	-2610.3	1383.3	-464.19	-2656	1333.8	-64.336	-2733.9	1300.4	-142.21	NaN	NaN	NaN	NaN	NaN	NaN	-2759.5	938.42	-318.28	-2765.1	953.28	-244.81	NaN	NaN	NaN	-2658.3	968.86	-127.3	-2640.5	655.94	-428.14	-2621.5	612.74	-429.62	-2654.6	607.04	-436.95	NaN	NaN	NaN	-2628.2	405.62	-419.78	NaN	NaN	NaN	NaN	NaN	NaN	-2655.8	651.27	-130.81	NaN	NaN	NaN	-2669.1	551.36	-110.4	-2645	442.18	-203.64	NaN	NaN	NaN	-2784.6	317.24	-435.26	NaN	NaN	NaN	-2755.1	350.76	-435.9	-2796.1	227.83	-446.21	-2972.5	172.5	-396.79	NaN	NaN	NaN	-2685.5	295.93	-188.33	-2658.4	335.84	-206.82	-2702.3	345.66	-179.59	-2672.3	219.38	-157.17	-2742.6	54.76	-215.9	-2751.8	78.542	-300.45	-3018.8	200.19	-351.01	NaN	NaN	NaN	-2990.4	152.15	-390.01	-2905.7	67.874	-343.88	-2923.3	58.22	-384.21	-2802.3	56.238	-242.57	-2755.6	41.925	-298.74	-2740.6	29.414	-221.37	-2627.1	33.77	-280.69	-2638.9	19.091	-222.5
75	0.74	-2673	1400.9	-251.45	-2712.4	1150.2	-288.31	NaN	NaN	NaN	NaN	NaN	NaN	-2598.6	1385.2	-463.98	-2641.7	1336.2	-64.06	-2720	1302.9	-141.19	NaN	NaN	NaN	NaN	NaN	NaN	-2746.2	940.61	-317.96	-2752.2	955.09	-244.47	NaN	NaN	NaN	-2645.7	970.56	-126.64	-2619.9	659.72	-427.56	-2599.2	617.46	-429.1	-2632.4	610.66	-436.82	NaN	NaN	NaN	-2597.5	410.67	-418.48	NaN	NaN	NaN	NaN	NaN	NaN	-2647.7	651.33	-130.39	NaN	NaN	NaN	-2663	551.72	-109.71	-2641.2	441.94	-202.64	NaN	NaN	NaN	-2752.3	319.97	-434.46	NaN	NaN	NaN	-2723.5	354.11	-434.38	-2761.7	230.21	-447.83	-2935.7	170.68	-399.11	NaN	NaN	NaN	-2682.8	296	-187.27	-2655.4	335.5	-205.87	-2699.2	346	-178.3	-2670.1	219.26	-156.17	-2741.8	55.479	-215.32	-2751.4	79.327	-299.34	-2983.4	195.46	-351.48	NaN	NaN	NaN	-2953.7	149.82	-392.6	-2865.4	67.085	-352.34	-2883.2	59.229	-392.75	-2802	57.253	-241.34	-2755.4	42.636	-297.64	-2739.6	30.211	-219.69	-2627	33.713	-280.38	-2639.2	18.142	-222.41
76	0.75	-2659.7	1402.6	-251	-2699.6	1151.9	-287.36	NaN	NaN	NaN	NaN	NaN	NaN	-2586.8	1386.9	-463.69	-2627.5	1338.4	-63.824	-2706.3	1305.3	-140.19	NaN	NaN	NaN	NaN	NaN	NaN	-2732.9	942.4	-317.74	-2739.5	956.57	-244.28	NaN	NaN	NaN	-2633.2	971.94	-125.98	-2599.9	663.75	-427.31	-2577.7	622.6	-429.04	-2610.4	614.29	-436.52	NaN	NaN	NaN	-2566.9	416.39	-416.83	NaN	NaN	NaN	NaN	NaN	NaN	-2639.4	651.5	-130.1	NaN	NaN	NaN	-2656.3	552.3	-109.05	-2636.8	441.7	-201.72	NaN	NaN	NaN	-2719.9	323.38	-433.39	NaN	NaN	NaN	-2692	358.19	-432.33	-2727.2	232.59	-449.46	-2898.9	168.85	-401.44	NaN	NaN	NaN	-2680	296.38	-186.07	-2652.3	335.62	-204.71	-2695.7	346.39	-177.22	-2667.9	219.48	-155.12	-2741	56.816	-213.82	-2750.9	80.482	-298.27	-2947	190.44	-352.19	NaN	NaN	NaN	-2915.8	146.99	-394.9	-2823.6	67.402	-360.7	-2841.3	59.133	-399.09	-2801.3	59.283	-240.16	-2755.3	43.704	-296.52	-2736.3	35.48	-224.74	-2627	33.659	-279.96	-2638.7	18.622	-221.61
77	0.76	-2646.4	1404	-250.53	-2687	1153.4	-286.46	NaN	NaN	NaN	NaN	NaN	NaN	-2575	1388.1	-463.51	-2613.4	1340.4	-63.578	-2692.7	1307.3	-139.28	NaN	NaN	NaN	NaN	NaN	NaN	-2719.7	943.85	-317.71	-2727	957.74	-244.34	NaN	NaN	NaN	-2621	973.02	-125.35	-2579.9	667.68	-427.02	-2556.3	627.74	-428.98	-2588.3	617.55	-435.8	NaN	NaN	NaN	-2536.3	422.58	-414.91	NaN	NaN	NaN	NaN	NaN	NaN	-2630.9	651.74	-129.95	NaN	NaN	NaN	-2649.1	552.89	-108.38	-2632	441.67	-200.77	NaN	NaN	NaN	-2687.1	326.84	-432.14	-2626.2	322.25	-418.64	-2660.2	362.45	-430.01	-2692.8	234.97	-451.08	-2862.1	167.03	-403.77	NaN	NaN	NaN	-2676.8	296.81	-184.95	-2648.7	335.72	-203.66	-2692	347.05	-176.07	-2665.6	219.81	-153.99	-2740.1	58.12	-213.05	-2749.1	79.956	-297.16	-2909.5	184.53	-352.97	-2840.2	165.31	-318	-2877	144.07	-397.3	-2781.7	66.693	-366.98	-2800	61.301	-407.01	-2800.7	61.314	-238.99	-2755	44.969	-295.58	-2736.5	33.39	-218.95	-2626.8	33.548	-279.44	-2638.6	18.392	-221.05
